<svg width="140" height="35" viewBox="0 0 140 35" fill="none" xmlns="http://www.w3.org/2000/svg">
<path d="M85.8289 26.7123H85.7822C85.8056 26.7123 85.8056 26.7356 85.8289 26.7356H85.8522L85.8289 26.7123ZM85.8289 26.7356C85.6423 26.7356 85.1523 26.8289 84.6391 26.8289C83.0294 26.8289 82.4695 26.0824 82.4695 25.1025V18.617H85.7589C85.9455 18.617 86.0855 18.4536 86.0855 18.2204V14.6976C86.0855 14.511 85.9222 14.3477 85.7589 14.3477H82.4695V9.96173C82.4695 9.79842 82.3528 9.7051 82.1662 9.7051H77.6869C77.5003 9.7051 77.407 9.82175 77.407 9.96173V14.4643C77.407 14.4643 75.144 15.0242 75.004 15.0475C74.8407 15.0942 74.7474 15.2342 74.7474 15.3975V18.2204C74.7474 18.4536 74.9107 18.617 75.0973 18.617H77.3836V25.4292C77.3836 30.4916 80.9064 31.0049 83.3093 31.0049C84.4058 31.0049 85.7356 30.655 85.9455 30.5383C86.0622 30.4916 86.1322 30.3517 86.1322 30.2117V27.1089C86.1322 26.9222 86.0155 26.7823 85.8289 26.7356ZM134.961 22.1864C134.961 18.4303 133.444 17.9404 131.858 18.1037C130.621 18.1737 129.618 18.8036 129.618 18.8036V26.1057C129.618 26.1057 130.621 26.8056 132.138 26.8523C134.261 26.8989 134.961 26.129 134.961 22.1864ZM140 21.8598C140 28.9752 137.69 31.0049 133.678 31.0049C130.272 31.0049 128.452 29.2785 128.452 29.2785C128.452 29.2785 128.382 30.235 128.265 30.3517C128.195 30.4683 128.102 30.515 127.962 30.515H124.906C124.696 30.515 124.509 30.3517 124.509 30.165L124.556 7.13886C124.556 6.95223 124.719 6.78892 124.906 6.78892H129.315C129.502 6.78892 129.665 6.95223 129.665 7.13886V14.9542C129.665 14.9542 131.368 13.8577 133.864 13.8577L133.841 13.8111C136.314 13.8111 140 14.7443 140 21.8598ZM121.92 14.371H117.557C117.324 14.371 117.207 14.5343 117.207 14.7676V26.0357C117.207 26.0357 116.064 26.8289 114.501 26.8289C112.961 26.8289 112.494 26.129 112.494 24.566V14.7209C112.494 14.5343 112.331 14.371 112.145 14.371H107.712C107.525 14.371 107.362 14.5343 107.362 14.7209V25.3358C107.362 29.8851 109.905 31.0282 113.404 31.0282C116.297 31.0282 118.63 29.4418 118.63 29.4418C118.63 29.4418 118.747 30.2584 118.793 30.375C118.84 30.4683 118.98 30.5616 119.12 30.5616H121.896C122.13 30.5616 122.246 30.3983 122.246 30.2117L122.293 14.7209C122.316 14.5343 122.13 14.371 121.92 14.371ZM72.7877 14.3477H68.3785C68.1918 14.3477 68.0285 14.5343 68.0285 14.7676V29.9784C68.0285 30.3983 68.3085 30.5383 68.6584 30.5383H72.6477C73.0677 30.5383 73.161 30.3517 73.161 29.9784V14.6976C73.1377 14.511 72.9744 14.3477 72.7877 14.3477ZM70.5948 7.3255C69.0083 7.3255 67.7252 8.58529 67.7252 10.195C67.7252 11.7814 68.985 13.0645 70.5948 13.0645C72.1578 13.0645 73.4176 11.8048 73.4176 10.195C73.4176 8.60862 72.1578 7.3255 70.5948 7.3255ZM104.796 6.81225H100.41C100.223 6.81225 100.06 6.97556 100.06 7.16219V15.6308H93.201V7.16219C93.201 6.97556 93.0377 6.81225 92.8511 6.81225H88.4418C88.2551 6.81225 88.0918 6.97556 88.0918 7.16219V30.1884C88.0918 30.375 88.2785 30.5383 88.4418 30.5383H92.8511C93.0377 30.5383 93.201 30.375 93.201 30.1884V20.3433H100.06L100.013 30.1884C100.013 30.375 100.177 30.5383 100.363 30.5383H104.772C104.959 30.5383 105.122 30.375 105.122 30.1884V7.16219C105.146 6.97556 104.982 6.81225 104.796 6.81225ZM65.6722 17.0072V28.9052C65.6722 28.9752 65.6489 29.1385 65.5556 29.1619C65.5556 29.1619 62.966 31.0049 58.6967 31.0049C53.5409 31.0049 47.4053 29.3952 47.4053 18.7336C47.4053 8.07204 52.7477 5.87908 57.9735 5.9024C62.4994 5.9024 64.3191 6.9289 64.5991 7.11553C64.6691 7.23218 64.7157 7.30217 64.7157 7.39549L63.8759 11.1049C63.8759 11.2915 63.6892 11.5248 63.4559 11.4548C62.7094 11.2215 61.5896 10.7783 58.9534 10.7783C55.8972 10.7783 52.6311 11.6414 52.6311 18.5236C52.6311 25.3825 55.7339 26.199 57.9735 26.199C59.8865 26.199 60.5631 25.9657 60.5631 25.9657V21.2065H57.5069C57.2736 21.2065 57.1103 21.0432 57.1103 20.8566V17.0306C57.1103 16.8439 57.2736 16.6806 57.5069 16.6806H65.2756C65.5089 16.6573 65.6722 16.8206 65.6722 17.0072Z" fill="white"/>
<path fill-rule="evenodd" clip-rule="evenodd" d="M17.777 0C7.95534 0 0 7.95535 0 17.777C0 25.6391 5.08582 32.288 12.1546 34.6442C13.0412 34.7842 13.3911 34.271 13.3911 33.8044C13.3911 33.3845 13.3678 31.9847 13.3678 30.4916C8.91185 31.3081 7.74538 29.3951 7.39544 28.4153C7.18547 27.902 6.32228 26.3156 5.57574 25.8957C4.94584 25.5691 4.05933 24.7292 5.55241 24.7059C6.95218 24.6826 7.95534 25.989 8.28196 26.5256C9.89169 29.2085 12.4346 28.4619 13.4611 27.9953C13.6244 26.8522 14.091 26.059 14.6042 25.6157C10.6616 25.1725 6.50892 23.6327 6.50892 16.8439C6.50892 14.9075 7.2088 13.2978 8.32862 12.0613C8.14198 11.6181 7.53541 9.79837 8.51525 7.34878C8.51525 7.34878 10.0083 6.88219 13.4144 9.16848C14.8375 8.77188 16.3539 8.56191 17.847 8.56191C19.3634 8.56191 20.8565 8.77188 22.2796 9.16848C25.6857 6.85886 27.1555 7.34878 27.1555 7.34878C28.1353 9.79837 27.5054 11.6181 27.3421 12.0613C28.4853 13.2978 29.1618 14.8842 29.1618 16.8439C29.1618 23.6561 25.0092 25.1725 21.0432 25.6157C21.6964 26.1757 22.2563 27.2255 22.2563 28.9052C22.2563 31.2848 22.233 33.1978 22.233 33.7811C22.233 34.2476 22.5596 34.8075 23.4461 34.6209C30.6782 32.1713 35.5541 25.3824 35.5541 17.7537C35.5541 7.95535 27.5987 0 17.777 0Z" fill="white"/>
</svg>
