<svg width="23" height="25" viewBox="0 0 23 25" fill="none" xmlns="http://www.w3.org/2000/svg">
<path d="M22.3217 7.6358C22.7328 6.9761 22.7328 6.1277 22.3217 5.4718L19.8101 1.45222L19.6008 1.11398C19.2252 0.514126 18.5787 0.155327 17.8685 0.155327H12.1989C11.4907 0.155327 10.8441 0.514127 10.4666 1.11585L0.313942 17.3642C0.110254 17.6894 0 18.065 0 18.4462C0 18.8274 0.108385 19.203 0.312074 19.5263L3.03478 23.886C3.41038 24.4877 4.05696 24.8446 4.76519 24.8446H10.4348C11.1468 24.8446 11.7934 24.4859 12.1671 23.8841L12.3746 23.5552C12.3746 23.5552 12.3746 23.5552 12.3746 23.5515L12.3783 23.544L14.4021 20.3074L20.4006 10.7079L22.3179 7.6376L22.3217 7.6358ZM21.7293 6.5538C21.7293 6.7612 21.6714 6.9705 21.5536 7.1555L11.6084 23.0731C11.5187 23.217 11.3748 23.2338 11.3169 23.2338C11.2589 23.2338 11.1169 23.217 11.0254 23.0731L8.51195 19.0461C8.28396 18.6817 8.28396 18.2126 8.51195 17.8445L18.4572 1.9306C18.5469 1.78484 18.6908 1.76803 18.7487 1.76803C18.8066 1.76803 18.9505 1.78484 19.0421 1.93247L21.5536 5.9521C21.6714 6.1371 21.7293 6.3463 21.7293 6.5538Z" fill="#1D1F20"/>
</svg>
