<svg width="19" height="22" viewBox="0 0 19 22" fill="none" xmlns="http://www.w3.org/2000/svg">
<path d="M18.3038 6.74024C18.6409 6.17949 18.6409 5.45835 18.3038 4.90084L16.2443 1.48419L16.0727 1.19669C15.7647 0.686816 15.2345 0.381836 14.6522 0.381836H10.0031C9.42237 0.381836 8.89216 0.686816 8.58261 1.19828L0.257432 15.0094C0.0904083 15.2858 0 15.6051 0 15.9291C0 16.2531 0.0888757 16.5724 0.255901 16.8472L2.48852 20.5529C2.79651 21.0643 3.32671 21.3677 3.90746 21.3677H8.55654C9.14038 21.3677 9.67059 21.0628 9.97702 20.5513L10.1472 20.2717C10.1472 20.2717 10.1472 20.2717 10.1472 20.2686L10.1502 20.2622L11.8097 17.5111L16.7285 9.35152L18.3007 6.74177L18.3038 6.74024ZM17.818 5.82053C17.818 5.99682 17.7705 6.17473 17.674 6.33198L9.51889 19.8619C9.44533 19.9843 9.32734 19.9985 9.27986 19.9985C9.2323 19.9985 9.11586 19.9843 9.04083 19.8619L6.9798 16.439C6.79285 16.1292 6.79285 15.7305 6.9798 15.4176L15.1349 1.89082C15.2085 1.76692 15.3265 1.75263 15.3739 1.75263C15.4214 1.75263 15.5394 1.76692 15.6145 1.8924L17.674 5.30909C17.7705 5.46634 17.818 5.64416 17.818 5.82053Z" fill="white"/>
</svg>
