<svg width="140" height="40" viewBox="0 0 140 40" fill="none" xmlns="http://www.w3.org/2000/svg">
<mask id="mask0_2044_18400" style="mask-type:luminance" maskUnits="userSpaceOnUse" x="0" y="4" width="140" height="35">
<path d="M139.463 4H0.541016V38.1877H139.463V4Z" fill="white"/>
</mask>
<g mask="url(#mask0_2044_18400)">
<path d="M99.569 15.4486C97.5268 15.4486 96.0693 16.1412 95.3539 17.4527L94.9695 18.163V15.7905H91.6463V30.2112H95.1417V21.6318C95.1417 19.5821 96.2637 18.4061 98.2185 18.4061C100.083 18.4061 101.151 19.5511 101.151 21.5464V30.2112H104.648V20.9275C104.648 17.494 102.75 15.4486 99.569 15.4486ZM82.6179 15.4486C78.4933 15.4486 75.9389 18.0038 75.9389 22.1167V24.1414C75.9389 28.0966 78.523 30.5531 82.6832 30.5531C85.4661 30.5531 87.4163 29.5407 88.6438 27.4585L86.4768 26.2207C85.57 27.4217 84.1214 28.1658 82.6847 28.1658C80.5786 28.1658 79.3215 26.8749 79.3215 24.7117V24.1385H89.0772V21.7468C89.0772 17.9154 86.5437 15.4486 82.6209 15.4486H82.6179ZM85.8966 21.8072H79.3096V21.4609C79.3096 19.0869 80.4836 17.7769 82.6149 17.7769C84.6676 17.7769 85.8935 19.0678 85.8935 21.231L85.8966 21.8072ZM139.36 13.4165V10.6579H127.27V13.4165H131.509V27.4467H127.27V30.2053H139.36V27.4467H135.12V13.4165H139.36ZM47.687 10.26C42.2875 10.26 38.9302 13.6007 38.9302 18.9808V21.8897C38.9302 27.2684 42.286 30.6105 47.687 30.6105C53.0881 30.6105 56.4439 27.2684 56.4439 21.8897V18.9808C56.4424 13.5948 53.0822 10.26 47.687 10.26ZM52.8313 22.0887C52.8313 25.6607 50.9568 27.709 47.687 27.709C44.4174 27.709 42.5443 25.6607 42.5443 22.0887V18.7804C42.5443 15.2084 44.4203 13.1601 47.6885 13.1601C50.9568 13.1601 52.8328 15.2084 52.8328 18.7804L52.8313 22.0887ZM67.4226 15.4486C65.5881 15.4486 63.9999 16.2031 63.1718 17.466L62.7962 18.0407V15.7905H59.4717V35.1728H62.9685V28.1526L63.3424 28.7037C64.1291 29.8619 65.6652 30.5531 67.4523 30.5531C70.4666 30.5531 73.5079 28.5976 73.5079 24.2269V21.7748C73.5079 18.6257 71.6333 15.4486 67.4226 15.4486ZM70.0111 24.0574C70.0111 26.3813 68.6455 27.8254 66.4489 27.8254C64.4007 27.8254 62.9714 26.2988 62.9714 24.1149V21.9457C62.9714 19.7353 64.4126 18.1792 66.4786 18.1792C68.6589 18.1792 70.014 19.6218 70.014 21.9457L70.0111 24.0574ZM114.31 10.6594L107.256 30.2112H110.807L112.158 26.0203H120.268L120.281 26.0615L121.616 30.2112H125.167L118.101 10.6579L114.31 10.6594ZM113.025 23.2631L116.207 13.3782L119.356 23.2631H113.025Z" fill="white"/>
<path d="M32.0923 18.017C32.4751 16.8763 32.6078 15.6677 32.4819 14.4719C32.356 13.2762 31.9742 12.121 31.3621 11.0836C30.4534 9.51584 29.0672 8.27469 27.403 7.5388C25.7387 6.80291 23.8822 6.61023 22.1006 6.98849C21.2971 6.08876 20.3093 5.36984 19.2032 4.87986C18.0972 4.38988 16.8984 4.14014 15.6874 4.14737C13.8652 4.14325 12.0888 4.71391 10.6144 5.77703C9.14005 6.84014 8.04391 8.34076 7.48412 10.0624C6.29783 10.304 5.17718 10.7944 4.19711 11.5006C3.21704 12.2068 2.40015 13.1127 1.80108 14.1576C0.887651 15.7228 0.497973 17.5354 0.688139 19.3345C0.878305 21.1336 1.63851 22.8264 2.85932 24.1693C2.4781 25.3089 2.34604 26.5162 2.47196 27.7105C2.59788 28.9048 2.97888 30.0587 3.58956 31.0952C4.49733 32.6661 5.88418 33.91 7.55008 34.6476C9.21598 35.3852 11.0748 35.5784 12.8585 35.1992C13.6613 36.0979 14.6479 36.8161 15.7526 37.3061C16.8572 37.796 18.0545 38.0463 19.2643 38.0404C21.0864 38.0445 22.8628 37.4738 24.3373 36.4107C25.8116 35.3476 26.9077 33.847 27.4675 32.1253C28.6536 31.8836 29.774 31.3932 30.7538 30.687C31.7336 29.9808 32.5502 29.0749 33.1491 28.0301C34.0648 26.4654 34.456 24.6522 34.2661 22.8524C34.0761 21.0525 33.3149 19.3592 32.0923 18.017ZM19.2643 35.8299C17.7678 35.8312 16.3187 35.3096 15.1709 34.3563C15.2213 34.3283 15.3192 34.2797 15.3756 34.2429L22.1733 30.3466C22.3439 30.2505 22.4855 30.1109 22.5836 29.9422C22.6817 29.7736 22.7327 29.5821 22.7314 29.3873V19.8708L25.6034 21.5168C25.6189 21.5241 25.6322 21.5353 25.6421 21.5492C25.652 21.5631 25.6581 21.5794 25.6598 21.5964V29.4728C25.6598 31.1575 24.9862 32.7734 23.787 33.9654C22.5879 35.1574 20.9611 35.828 19.2643 35.8299ZM5.522 30.0033C4.77264 28.7175 4.50209 27.2112 4.75763 25.7475C4.80809 25.7785 4.89715 25.8315 4.95948 25.8669L11.7586 29.7646C11.9279 29.863 12.1206 29.9149 12.3167 29.9149C12.5129 29.9149 12.7055 29.863 12.8748 29.7646L21.17 25.0019V28.2939C21.1715 28.3108 21.1687 28.3279 21.1617 28.3433C21.1546 28.3588 21.1437 28.3723 21.1299 28.3823L14.2581 32.3198C12.7888 33.1598 11.0438 33.3868 9.40609 32.9512C7.76836 32.5155 6.37154 31.4527 5.522 29.9959V30.0033ZM3.74095 15.2672C4.48679 13.9795 5.66535 12.9935 7.07003 12.4821V20.5044C7.06903 20.6991 7.12018 20.8905 7.21824 21.0591C7.3163 21.2277 7.45776 21.3673 7.62809 21.4637L15.9249 26.2205L13.0425 27.8725C13.0285 27.8819 13.0123 27.8876 12.9953 27.8891C12.9785 27.8907 12.9616 27.888 12.946 27.8813L6.0756 23.9423C4.60761 23.0991 3.53662 21.712 3.09777 20.0855C2.65894 18.459 2.88811 16.7261 3.735 15.2672H3.74095ZM27.3399 20.7196L19.0431 15.9628L21.9121 14.3153C21.9262 14.306 21.9424 14.3003 21.9593 14.2988C21.9761 14.2973 21.993 14.2999 22.0086 14.3064L28.879 18.2454C29.9313 18.8491 30.7886 19.7379 31.3506 20.8078C31.9126 21.8777 32.156 23.0844 32.0523 24.2866C31.9485 25.4889 31.502 26.6369 30.765 27.5964C30.028 28.5558 29.0309 29.2869 27.8905 29.7042V21.6833C27.8927 21.4882 27.8425 21.2959 27.7449 21.1265C27.6473 20.9571 27.506 20.8166 27.3355 20.7196H27.3399ZM30.1999 16.4461C30.1495 16.4152 30.0604 16.3621 29.9981 16.3267L23.1989 12.429C23.0296 12.3306 22.837 12.2787 22.6408 12.2787C22.4447 12.2787 22.2521 12.3306 22.0829 12.429L13.7861 17.1844V13.8938C13.7855 13.8769 13.7889 13.86 13.7962 13.8447C13.8034 13.8293 13.8142 13.8158 13.8276 13.8054L20.6981 9.86792C21.7508 9.26543 22.9545 8.97309 24.1684 9.02509C25.3824 9.0771 26.5563 9.4713 27.5528 10.1616C28.5493 10.8518 29.3273 11.8096 29.7955 12.9228C30.2638 14.036 30.4031 15.2587 30.197 16.4476L30.1999 16.4461ZM12.2202 22.317L9.34681 20.6709C9.33204 20.6628 9.31939 20.6514 9.30985 20.6376C9.30033 20.6238 9.29417 20.608 9.29189 20.5914V12.7149C9.29097 11.5077 9.63666 10.3253 10.2885 9.30619C10.9403 8.2871 11.8711 7.47361 12.972 6.96106C14.0728 6.44851 15.2981 6.25816 16.504 6.4123C17.7099 6.56645 18.8466 7.05871 19.7808 7.83139C19.7303 7.85939 19.6398 7.90802 19.5759 7.94486L12.7783 11.8411C12.608 11.9375 12.4666 12.0771 12.3685 12.2457C12.2704 12.4143 12.2192 12.6057 12.2202 12.8004V22.317ZM13.7801 18.9763L17.4758 16.8572L21.17 18.9763V23.2114L17.4743 25.3305L13.7786 23.2114L13.7801 18.9763Z" fill="white"/>
</g>
</svg>
