<svg width="157" height="45" viewBox="0 0 157 45" fill="none" xmlns="http://www.w3.org/2000/svg">
<path d="M43.1613 31.8749C41.3176 31.8749 39.7252 31.4559 38.4402 30.6178C37.183 29.8076 36.2332 28.5785 35.7583 27.1537L38.4681 25.5614C39.2503 27.7124 40.8426 28.8019 43.2451 28.8019C44.4464 28.8019 45.3124 28.5785 45.8991 28.1035C46.4857 27.6845 46.8209 26.9861 46.8209 26.2598C46.8489 25.5334 46.4857 24.835 45.8711 24.4719C45.2286 24.0528 44.0832 23.6059 42.4629 23.103C41.7087 22.8795 40.9544 22.6281 40.2281 22.3208C39.5855 22.0414 38.9989 21.7062 38.4122 21.343C37.8256 20.924 37.3227 20.3653 37.0154 19.7228C36.6802 19.0244 36.5405 18.2422 36.5405 17.4599C36.5405 15.7559 37.1551 14.4149 38.3563 13.4092C39.5855 12.4035 41.122 11.8728 42.7144 11.9007C44.1391 11.8728 45.5359 12.2639 46.7651 13.0181C47.9384 13.7724 48.8603 14.8619 49.419 16.119L46.7651 17.6555C45.9549 15.8676 44.614 14.9736 42.7144 14.9736C41.7925 14.9736 41.0661 15.1971 40.5074 15.6441C39.9766 16.0631 39.6693 16.7057 39.6693 17.3761C39.6414 18.0466 39.9487 18.6891 40.5074 19.0802C41.0661 19.4713 42.0998 19.9183 43.5524 20.3653C44.2788 20.6167 44.8095 20.7843 45.1448 20.924C45.48 21.0357 45.9829 21.2034 46.5695 21.4827C47.0724 21.6783 47.5473 21.9297 47.9663 22.2649C48.3295 22.5722 48.6647 22.8795 48.972 23.2427C49.3352 23.6059 49.5866 24.0528 49.7542 24.5557C49.8939 25.1144 49.9777 25.6731 49.9777 26.2318C49.9777 27.9639 49.3352 29.3607 48.0781 30.3943C46.8209 31.4279 45.1727 31.9028 43.1613 31.8749Z" fill="white"/>
<path d="M59.0844 20.6447H55.6762V27.2376C55.6762 27.7963 55.8159 28.2153 56.0673 28.4668C56.3746 28.7182 56.7937 28.8858 57.1848 28.8858C57.6876 28.9137 58.3301 28.8858 59.0844 28.8579V31.5118C56.8216 31.7911 55.1734 31.5956 54.1956 30.9251C53.2179 30.2547 52.715 29.0255 52.715 27.2096V20.6168H50.1729V17.7673H52.715V14.8061L55.6762 13.9401V17.7952H59.0844V20.6447Z" fill="white"/>
<path d="M71.404 17.7952H74.3652V31.5396H71.404V29.5562C70.2865 31.1206 68.6942 31.9028 66.599 31.9028C64.7552 31.9308 62.9953 31.1765 61.7661 29.8076C60.4531 28.4388 59.7267 26.567 59.7547 24.6674C59.7547 22.6281 60.4251 20.924 61.7661 19.5272C62.9953 18.1863 64.7552 17.4041 66.599 17.432C68.6942 17.432 70.2865 18.1863 71.404 19.7227V17.7952ZM63.9451 27.8242C65.6771 29.4724 68.4148 29.4724 70.1469 27.8242C70.9849 26.9861 71.404 25.8407 71.376 24.6674C71.404 23.4941 70.957 22.3487 70.1469 21.5386C68.4148 19.8624 65.6492 19.8624 63.9451 21.5386C63.107 22.3767 62.66 23.4941 62.7159 24.6674C62.688 25.8407 63.1349 26.9861 63.9451 27.8242Z" fill="white"/>
<path d="M83.6401 31.875C81.5728 31.875 79.8408 31.1766 78.444 29.7798C77.0751 28.411 76.3488 26.5672 76.3768 24.6396C76.3768 22.6003 77.0751 20.8683 78.444 19.4994C79.8129 18.1305 81.5449 17.4321 83.6401 17.4042C84.9252 17.3763 86.1823 17.7115 87.2997 18.354C88.3613 18.9407 89.2273 19.8626 89.786 20.9241L87.2438 22.4047C86.9365 21.7622 86.4337 21.2035 85.8191 20.8683C85.1766 20.4772 84.4223 20.2816 83.6401 20.2816C82.4947 20.2537 81.4052 20.7006 80.5951 21.5108C78.9748 23.2428 78.9748 25.9247 80.5951 27.6567C81.9919 29.0256 84.115 29.277 85.8191 28.3272C86.4616 27.964 86.9645 27.4332 87.2997 26.7907L89.8419 28.2434C89.2552 29.3329 88.3892 30.2547 87.2997 30.8414C86.1823 31.5677 84.9252 31.903 83.6401 31.875Z" fill="white"/>
<path d="M103.419 31.5397H99.8709L94.2278 25.1983V31.5397H91.2666V12.2919H94.2278V23.8574L99.5636 17.7953H103.195L97.1611 24.5278L103.419 31.5397Z" fill="white"/>
<path d="M116.269 21.5666C117.973 22.4047 119.007 24.1647 118.979 26.0364C119.007 27.517 118.392 28.9697 117.303 29.9753C116.185 31.009 114.733 31.5677 113.196 31.5398H104.955V12.2919H112.582C114.062 12.264 115.487 12.8227 116.548 13.8284C117.638 14.7782 118.225 16.175 118.197 17.6277C118.197 19.2759 117.554 20.5889 116.269 21.5666ZM112.582 15.2531H108.112V20.3095H112.582C113.252 20.3374 113.867 20.0581 114.342 19.5832C114.816 19.1083 115.068 18.4378 115.068 17.7673C115.096 17.0969 114.816 16.4543 114.342 15.9794C113.895 15.5045 113.252 15.2531 112.582 15.2531ZM113.168 28.5506C113.867 28.5786 114.537 28.2992 115.012 27.7684C115.515 27.2656 115.794 26.5672 115.794 25.8408C115.822 25.1424 115.543 24.444 115.012 23.9412C114.537 23.4104 113.867 23.131 113.168 23.131H108.084V28.5227H113.168V28.5506Z" fill="white"/>
<path d="M120.823 31.5397V11.4817H123.784V31.5397H120.823Z" fill="white"/>
<path d="M129.372 15.1693C129.037 15.5324 128.562 15.728 128.059 15.728C127.025 15.728 126.159 14.8899 126.159 13.8563V13.8284C126.187 12.7947 127.025 11.9566 128.059 11.9287C129.092 11.9566 129.931 12.7947 129.958 13.8284C129.958 14.3312 129.735 14.8061 129.372 15.1693ZM126.55 31.5397V17.7953H129.511V31.5397H126.55Z" fill="white"/>
<path d="M139.959 20.6447H136.551V27.2376C136.551 27.7963 136.691 28.2153 136.942 28.4668C137.25 28.7182 137.669 28.8858 138.06 28.8858C138.563 28.9137 139.205 28.8858 139.959 28.8579V31.5118C137.697 31.7911 136.048 31.5956 135.071 30.9251C134.093 30.2547 133.59 29.0255 133.59 27.2096V20.6168H131.048V17.7673H133.59V14.8061L136.551 13.9401V17.7952H139.959V20.6447Z" fill="white"/>
<path d="M145.378 28.7181H152.055V31.5117H141.328V29.5282L147.753 20.5608H141.607V17.7672H151.776V19.7507L145.378 28.7181Z" fill="white"/>
<path d="M4.94482 25.2541H15.3929L9.30283 40.0043L29.277 18.9965H18.7731L24.8073 4.35803L4.94482 25.2541Z" fill="white"/>
</svg>
